<?xml version="1.0" encoding="utf-8"?>
<!-- Svg Vector Icons : http://www.onlinewebfonts.com/icon -->
<!DOCTYPE svg PUBLIC "-//W3C//DTD SVG 1.1//EN" "http://www.w3.org/Graphics/SVG/1.1/DTD/svg11.dtd">
<svg version="1.1" xmlns="http://www.w3.org/2000/svg" xmlns:xlink="http://www.w3.org/1999/xlink" x="0px" y="0px" viewBox="0 0 1000 1000" enable-background="new 0 0 1000 1000"
transform= "rotate(180)" 
xml:space="preserve">
<metadata> Svg Vector Icons : http://www.onlinewebfonts.com/icon </metadata>
<g><path d="M519.6,219C519.6,219,519.6,219,519.6,219c-0.6-0.3-1.1-0.6-1.7-0.9c0,0,0,0-0.1,0c-0.6-0.3-1.1-0.5-1.7-0.8c0,0-0.1,0-0.1-0.1c-0.5-0.2-1.1-0.5-1.7-0.7c-0.1,0-0.1-0.1-0.2-0.1c-0.5-0.2-1.1-0.4-1.6-0.6c-0.1,0-0.2-0.1-0.3-0.1c-0.5-0.2-1.1-0.3-1.6-0.5c-0.1,0-0.2-0.1-0.4-0.1c-0.5-0.1-1-0.2-1.5-0.4c-0.2,0-0.3-0.1-0.5-0.1c-0.5-0.1-1-0.2-1.5-0.3c-0.2,0-0.4-0.1-0.5-0.1c-0.5-0.1-1-0.1-1.5-0.2c-0.2,0-0.4-0.1-0.6-0.1c-0.5-0.1-1-0.1-1.5-0.1c-0.2,0-0.4,0-0.6,0c-0.7,0-1.4-0.1-2.1-0.1c-0.7,0-1.4,0-2.1,0.1c-0.2,0-0.4,0-0.6,0c-0.5,0-1,0.1-1.5,0.1c-0.2,0-0.4,0.1-0.6,0.1c-0.5,0.1-1,0.1-1.5,0.2c-0.2,0-0.4,0.1-0.5,0.1c-0.5,0.1-1,0.2-1.5,0.3c-0.2,0-0.3,0.1-0.5,0.1c-0.5,0.1-1,0.2-1.5,0.4c-0.1,0-0.2,0.1-0.4,0.1c-0.5,0.1-1.1,0.3-1.6,0.5c-0.1,0-0.2,0.1-0.3,0.1c-0.5,0.2-1.1,0.4-1.6,0.6c-0.1,0-0.1,0.1-0.2,0.1c-0.6,0.2-1.1,0.4-1.7,0.7c0,0-0.1,0-0.1,0.1c-0.6,0.2-1.1,0.5-1.7,0.8c0,0,0,0-0.1,0c-0.6,0.3-1.1,0.6-1.7,0.9c0,0,0,0,0,0c-3.5,1.9-6.7,4.3-9.4,7.1l0,0L22,716.3c-7.4,7.4-12,17.6-12,28.9c0,22.6,18.3,40.8,40.8,40.8c11.3,0,21.5-4.6,28.9-12L500,314.6l420.3,459.4c7.4,7.4,17.6,12,28.9,12c22.6,0,40.8-18.3,40.8-40.8c0-11.3-4.6-21.5-12-28.9l-449-490.2l0,0l0,0C526.3,223.3,523.1,220.9,519.6,219z" fill="#fff"/></g>
</svg>